<svg width="12" height="16" fill="none" xmlns="http://www.w3.org/2000/svg"><path d="M11.251 3.98c-.056-.212-.171-.442-.257-.64C9.971.883 7.732 0 5.928 0 3.51 0 .846 1.622.493 4.963v.684c0 .03.01.283.022.413.2 1.592 1.455 3.285 2.396 4.877C3.919 12.645 4.968 14.322 6.006 16c.64-1.094 1.28-2.206 1.904-3.27.172-.312.369-.625.54-.926.115-.197.331-.398.431-.584 1.009-1.85 2.634-3.713 2.634-5.547v-.755c-.004-.197-.249-.893-.264-.938zM5.97 7.41c-.71 0-1.488-.357-1.872-1.335-.055-.156-.052-.469-.052-.499v-.442c0-1.25 1.064-1.82 1.987-1.82 1.138 0 2.016.912 2.016 2.05 0 1.135-.941 2.046-2.08 2.046z" fill="#12B6ED"/></svg>