<svg width="17" height="17" fill="none" xmlns="http://www.w3.org/2000/svg"><path d="M15.766 6.329l-.829-.14a6.886 6.886 0 00-.25-.604l.489-.683a1.479 1.479 0 00-.16-1.914l-.997-.997a1.477 1.477 0 00-1.912-.16l-.685.488a6.84 6.84 0 00-.644-.265l-.137-.813A1.483 1.483 0 009.174 0H7.766c-.73 0-1.347.522-1.467 1.24l-.144.844a6.708 6.708 0 00-.6.253l-.674-.485a1.473 1.473 0 00-.866-.277c-.4 0-.773.155-1.052.437l-.998.996a1.484 1.484 0 00-.161 1.914l.496.697c-.091.197-.174.4-.246.606l-.813.137C.522 6.483 0 7.1 0 7.83v1.407c0 .73.522 1.347 1.24 1.467l.844.144c.074.204.159.405.253.601l-.483.672a1.479 1.479 0 00.16 1.915l.997.996a1.478 1.478 0 001.911.16l.697-.495c.184.085.373.163.568.233l.138.829c.121.719.738 1.241 1.468 1.241h1.41c.73 0 1.347-.522 1.468-1.24l.14-.83c.206-.073.408-.157.604-.249l.68.487c.253.181.552.277.866.277.396 0 .77-.155 1.051-.436l.996-.997a1.483 1.483 0 00.161-1.914l-.489-.687c.095-.2.179-.402.25-.602l.829-.138a1.484 1.484 0 001.24-1.467V7.799a1.469 1.469 0 00-1.233-1.47zm.238 2.875a.49.49 0 01-.41.485l-1.098.183a.537.537 0 00-.427.373c-.097.316-.231.639-.398.96a.537.537 0 00.04.562l.647.908a.49.49 0 01-.054.633l-.996.996a.481.481 0 01-.347.145.484.484 0 01-.285-.09l-.905-.647a.536.536 0 00-.564-.04c-.305.16-.628.293-.961.398a.537.537 0 00-.37.425l-.187 1.099a.49.49 0 01-.485.41H7.793a.49.49 0 01-.485-.41l-.183-1.098a.537.537 0 00-.37-.426 5.83 5.83 0 01-.93-.382.539.539 0 00-.561.04l-.921.655a.48.48 0 01-.627-.055l-.999-.998a.486.486 0 01-.053-.63l.643-.894a.536.536 0 00.039-.57 5.693 5.693 0 01-.403-.955.538.538 0 00-.424-.369l-1.113-.19a.49.49 0 01-.41-.485V7.83a.49.49 0 01.41-.485l1.085-.183a.537.537 0 00.426-.375c.103-.335.234-.659.392-.962a.537.537 0 00-.04-.561l-.653-.92a.49.49 0 01.052-.631l1-.997.004-.003a.477.477 0 01.343-.142c.104 0 .202.03.284.09l.899.647a.536.536 0 00.569.038c.306-.164.628-.3.955-.403a.538.538 0 00.37-.424l.19-1.113a.49.49 0 01.484-.41h1.408a.49.49 0 01.485.41l.183 1.086a.537.537 0 00.375.426c.336.102.671.24.997.41.18.095.396.08.563-.039l.91-.648a.481.481 0 01.627.055l.999.998c.17.168.192.434.052.63l-.647.905a.537.537 0 00-.04.564c.16.304.294.628.399.961a.537.537 0 00.424.37l1.099.187c.237.04.407.241.404.478v1.415z" fill="#111"/><path d="M8.5 5.195A3.309 3.309 0 005.195 8.5 3.31 3.31 0 008.5 11.805 3.31 3.31 0 0011.805 8.5 3.31 3.31 0 008.5 5.195zm0 5.614A2.312 2.312 0 016.19 8.5 2.312 2.312 0 018.5 6.19a2.312 2.312 0 012.31 2.31 2.312 2.312 0 01-2.31 2.31z" fill="#111"/></svg>