<svg width="12" height="16" viewBox="0 0 12 16" fill="none" xmlns="http://www.w3.org/2000/svg">
<path d="M11.2506 3.98046C11.1948 3.76842 11.0795 3.53778 10.9939 3.34061C9.97091 0.881654 7.73143 0 5.9272 0C3.50916 0 0.845594 1.62195 0.492188 4.96256V5.64705C0.492188 5.67681 0.503348 5.92977 0.514508 6.05998C0.715391 7.65216 1.96905 9.34479 2.91023 10.937C3.91837 12.6445 4.96743 14.3222 6.00532 16C6.64518 14.9063 7.28503 13.794 7.91 12.73C8.08112 12.4176 8.27828 12.1051 8.44941 11.8037C8.56473 11.6066 8.78049 11.4057 8.88093 11.2197C9.88907 9.37083 11.5147 7.50708 11.5147 5.67309V4.91792C11.511 4.72075 11.2655 4.0251 11.2506 3.98046ZM5.96812 7.41036C5.25759 7.41036 4.4801 7.05323 4.09693 6.07485C4.04113 5.91861 4.04485 5.60613 4.04485 5.57637V5.13368C4.04485 3.88374 5.10879 3.31457 6.03136 3.31457C7.1697 3.31457 8.04764 4.22599 8.04764 5.36432C8.04764 6.49894 7.10646 7.41036 5.96812 7.41036Z" fill="#12B6ED"/>
</svg>
