<svg width="22" height="22" viewBox="0 0 22 22" fill="none" xmlns="http://www.w3.org/2000/svg">
    <path d="M16.4962 8.24829C16.4962 3.69195 12.802 -0.00299072 8.24659 -0.00299072C3.69118 -0.00299072 -0.00300598 3.69195 -0.00300598 8.24829C-0.00300598 12.8046 3.69118 16.4996 8.24659 16.4996C12.802 16.4996 16.4962 12.8046 16.4962 8.24829ZM8.25112 14.4368C4.83796 14.4368 2.06393 11.6621 2.06393 8.24829C2.06393 4.83444 4.83796 2.06436 8.25112 2.06436C11.6643 2.06436 14.4383 4.83897 14.4383 8.25282C14.4383 11.6667 11.6597 14.4368 8.25112 14.4368Z" fill="white"/>
    <path d="M21.3919 18.4766L16.347 13.4306C15.5945 14.6003 14.6019 15.5932 13.4324 16.3458L18.4774 21.3917C19.2842 22.1987 20.5896 22.1987 21.3919 21.3917C22.1987 20.5893 22.1987 19.2836 21.3919 18.4766Z" fill="white"/>
</svg>
