<svg xmlns="http://www.w3.org/2000/svg" width="59" height="58" fill="none"><circle cx="7.272" cy="7.184" r="3.821" fill="#3F76C1"/><circle cx="51.288" cy="7.184" r="3.821" fill="#F8BC26"/><circle cx="51.288" cy="50.891" r="3.821" fill="#F48F44"/><circle cx="7.272" cy="50.891" r="3.821" fill="#97C069"/><path fill="#3F76C1" d="M20.46 1.442 18.278 8.71l-.764 2.445-.612 2.752-.152 2.75v2.751l.61 1.529.612 1.222.611.917.612.611.611.612.611.458.612.459.611.305.611.306.612.306.61.305.918.306.917.306.917.458.614.306h-.002l-1.224.458-1.68.306h-5.35l-1.528-.306-.917-.305-1.223-.459L14 27.05l-.917-.917-.917-1.376-.612-1.07-.305-1.375-.153-1.07.153-4.585.305-2.75.612-2.752.61-2.445L15.046 0l5.415 1.442Z"/><path fill="#3F76C1" d="m1.592 20.597 7.244-2.42 2.436-.845 2.747-.704 2.76-.251 2.763-.1 1.551.548 1.245.56.937.57.63.582.63.582.477.587.477.588.323.592.323.593.323.593.323.593.332.895.33.895.485.89.324.596v-.003l.428-1.225.263-1.673-.141-5.285-.348-1.5-.33-.894-.494-1.192-.484-.89-.946-.872-1.405-.856-1.091-.565-1.39-.252-1.079-.112-4.601.318-2.756.402-2.747.704-2.44.694L0 15.3l1.59 5.297Z"/><path fill="#97C069" d="m20.748 56.334-2.295-7.285-.801-2.45-.657-2.76-.203-2.763-.052-2.764.575-1.542.581-1.234.587-.928.593-.62.593-.62.595-.466.596-.466.598-.313.599-.313.598-.313.599-.312.9-.316.901-.316.898-.469.601-.313h-.002l-1.218-.45-1.668-.29-5.287.048-1.505.321-.9.316-1.2.472-.898.47-.89.93-.88 1.39-.583 1.08-.277 1.386-.13 1.076.238 4.607.354 2.762.656 2.759.651 2.452 2.408 8.733 5.325-1.499Z"/><path fill="#F48F44" d="m56.594 37.757-7.337 2.12-2.47.743-2.773.591-2.767.138-2.766-.014-1.527-.612-1.22-.61-.913-.609-.606-.607-.606-.608-.452-.606-.452-.606-.298-.606-.299-.606-.298-.606-.299-.605-.294-.908-.294-.908-.447-.909-.3-.608.001.002-.478 1.207-.332 1.66-.076 5.287.285 1.512.294.908.443 1.21.448.91.909.91 1.369.913 1.066.61 1.379.309 1.073.156 4.61-.128 2.77-.289 2.774-.59 2.467-.593 8.788-2.2-1.372-5.358Z"/><path fill="#F8BC26" d="m37.895 1.426 2.108 7.341.74 2.47.58 2.776.113 2.772-.042 2.77-.645 1.534-.641 1.226-.636.917-.631.61-.632.61-.629.455-.628.456-.627.302-.627.302-.626.302-.627.302-.938.299-.937.299-.94.453-.63.302h.003l1.237.473 1.706.324 5.442.052 1.559-.293.938-.299 1.25-.45.94-.453.947-.914.954-1.377.639-1.071.332-1.383.171-1.076-.085-4.619-.268-2.773-.58-2.776-.584-2.469L43.426.025l-5.53 1.4Z"/><path fill="#97C069" d="m1.812 37.592 7.278 2.152 2.448.754 2.753.6 2.752.14 2.75-.011 1.527-.618 1.22-.616.914-.616.609-.613.609-.614.455-.614.456-.613.303-.612.303-.613.303-.613.304-.612.301-.918.302-.919.455-.919.303-.615v.002l.463 1.221.313 1.68.023 5.35-.3 1.529-.301.918-.454 1.225-.454.919-.913.92-1.372.923-1.067.616-1.374.311-1.07.158-4.585-.134-2.752-.294-2.754-.6-2.447-.6-8.72-2.233 1.419-5.42Z"/><path fill="#F48F44" d="m37.95 56.464 2.218-7.258.776-2.441.624-2.748.166-2.75.014-2.751-.604-1.531-.606-1.226-.607-.92-.608-.614-.608-.614-.61-.462-.608-.461-.61-.309-.61-.308-.61-.31-.61-.308-.915-.31-.916-.31-.915-.463-.612-.308h.002l1.225-.453 1.683-.298 5.349.026 1.527.313.915.31 1.22.465.915.463.913.921.91 1.38.606 1.073.3 1.377.147 1.07-.175 4.584-.319 2.75-.624 2.748-.623 2.442-2.312 8.7-5.407-1.469Z"/><path fill="#F8BC26" d="m56.546 20.323-7.263-2.2-2.444-.77-2.749-.62-2.75-.159-2.751-.007-1.53.608-1.224.608-.919.609-.613.61-.612.61-.46.61-.46.61-.308.61-.307.61-.307.611-.307.61-.308.917-.308.916-.461.916-.307.613v-.002l-.456-1.224-.301-1.682.013-5.35.31-1.527.308-.916.461-1.221.461-.916.92-.915 1.377-.913 1.072-.609 1.376-.302 1.07-.15 4.584.164 2.75.313 2.75.618 2.444.617 8.705 2.292-1.456 5.41Z"/></svg>