<svg xmlns="http://www.w3.org/2000/svg" width="45" height="45" fill="none"><ellipse cx="5.706" cy="5.482" fill="#3F76C1" rx="2.92" ry="2.915"/><ellipse cx="39.347" cy="5.482" fill="#F8BC26" rx="2.92" ry="2.915"/><ellipse cx="39.347" cy="38.833" fill="#F48F44" rx="2.92" ry="2.915"/><ellipse cx="5.706" cy="38.833" fill="#97C069" rx="2.92" ry="2.915"/><path fill="#3F76C1" d="m15.78 1.1-1.668 5.547-.584 1.866-.467 2.099-.117 2.1v2.098l.467 1.166.467.933.468.7.467.466.467.467.467.35.467.35.468.233.467.233.467.233.467.234.7.233.702.233.7.35.47.233h-.002l-.935.35-1.285.233h-4.087l-1.168-.233-.701-.233-.935-.35-.7-.35-.701-.7-.701-1.05-.467-.815-.234-1.05-.117-.816.117-3.499.234-2.099.467-2.1.467-1.865L11.642 0l4.138 1.1Z"/><path fill="#3F76C1" d="m1.368 15.718 5.537-1.848 1.861-.644 2.1-.537 2.109-.192 2.112-.076 1.185.418.951.427.716.436.482.444.482.444.364.448.364.448.247.452.247.453.247.452.247.453.253.683.253.683.37.678.248.455v-.002l.327-.935.201-1.276-.108-4.033-.265-1.144-.253-.683-.377-.91-.37-.678-.723-.666-1.074-.653-.834-.431-1.062-.193-.824-.085-3.517.243-2.106.307-2.1.537-1.864.529-6.642 1.953 1.216 4.043Z"/><path fill="#97C069" d="m16.005 42.986-1.753-5.559-.613-1.87-.502-2.105-.155-2.109-.04-2.11.44-1.176.444-.942.448-.707.454-.473.452-.473.456-.356.455-.356.457-.239.458-.238.457-.239.457-.239.689-.24.688-.241.686-.358.46-.24-.002.001-.93-.343-1.275-.223-4.041.038-1.15.245-.689.24-.917.36-.686.359-.68.71-.672 1.06-.446.825-.211 1.057-.1.822.182 3.515.27 2.107.502 2.105.497 1.871 1.84 6.665 4.07-1.144Z"/><path fill="#F48F44" d="m43.395 28.81-5.607 1.618-1.887.567-2.12.45-2.115.106-2.113-.01-1.168-.468-.932-.465-.698-.465-.463-.463-.463-.464-.345-.462-.346-.463-.228-.462-.228-.463-.228-.462-.228-.462-.225-.693-.225-.693-.342-.693-.228-.464v.002l-.366.92-.253 1.267-.058 4.034.218 1.154.224.693.34.924.341.693.695.695 1.046.697.815.465 1.054.236.82.12 3.524-.099 2.116-.22 2.12-.45 1.885-.452 6.717-1.68-1.049-4.088Z"/><path fill="#F8BC26" d="m29.107 1.089 1.611 5.602.566 1.885.443 2.118.086 2.115-.032 2.114-.493 1.17-.49.935-.486.7-.483.466-.482.465-.48.348-.481.348-.48.23-.478.23-.479.23-.479.231-.716.228-.717.229-.718.345-.481.23h.002l.945.362 1.304.247 4.158.04 1.192-.224.717-.228.956-.343.718-.346.724-.698.729-1.05.488-.818.253-1.055.132-.82-.065-3.525-.206-2.116-.443-2.119-.446-1.884-1.662-6.71-4.227 1.068Z"/><path fill="#97C069" d="m1.536 28.686 5.562 1.642 1.872.575 2.104.457 2.103.108 2.102-.009 1.166-.471.933-.47.698-.47.466-.468.465-.469.348-.468.349-.468.231-.467.232-.467.232-.468.231-.467.23-.701.232-.7.347-.702.232-.47v.002l.354.932.239 1.282.017 4.081-.229 1.168-.23.7-.347.935-.347.7-.698.703-1.048.705-.816.47-1.05.237-.817.12-3.504-.102-2.104-.224-2.104-.458-1.87-.458-6.665-1.704 1.084-4.136Z"/><path fill="#F48F44" d="m29.155 43.086 1.695-5.538.593-1.863.477-2.097.127-2.099.01-2.099-.462-1.168-.462-.935-.464-.702-.465-.469-.465-.469-.465-.352-.466-.352-.466-.235-.466-.236-.466-.235-.466-.236-.7-.236-.7-.237-.699-.353-.468-.236h.002l.936-.345 1.286-.227 4.088.02 1.167.238.7.237.933.354.699.354.697.703.696 1.053.463.818.229 1.05.112.818-.133 3.497-.244 2.099-.477 2.096-.477 1.864-1.766 6.638-4.133-1.12Z"/><path fill="#F8BC26" d="m43.354 15.507-5.55-1.679-1.868-.588-2.101-.472-2.102-.122-2.103-.005-1.169.464-.935.464-.702.465-.469.465-.468.465-.352.466-.351.465-.235.466-.235.466-.234.466-.235.466-.236.699-.235.7-.352.698-.235.468v-.002l-.348-.934-.23-1.283.01-4.082.236-1.166.236-.699.353-.932.352-.699.702-.697 1.053-.698.819-.464 1.052-.23.818-.115 3.503.125 2.102.239 2.101.472 1.868.47 6.653 1.75-1.113 4.128Z"/></svg>