<svg width="17" height="17" fill="none" xmlns="http://www.w3.org/2000/svg"><path d="M17 6.677c0-.25-.19-.408-.573-.469L11.3 5.464 9.003.816c-.13-.28-.297-.419-.501-.419-.204 0-.372.14-.501.419L5.704 5.464l-5.131.744C.19 6.27 0 6.426 0 6.677c0 .143.086.308.254.49l3.721 3.618-.88 5.106a1.624 1.624 0 00-.021.204c0 .143.035.265.107.361.072.1.179.147.322.147a.86.86 0 00.408-.122l4.587-2.412 4.588 2.412c.143.082.279.122.407.122.28 0 .419-.172.419-.512 0-.09-.004-.157-.01-.204l-.877-5.102 3.707-3.618c.178-.179.268-.34.268-.49zm-5.385 3.646l.737 4.301-3.85-2.032-3.865 2.032.745-4.3-3.124-3.035 4.312-.634 1.932-3.903 1.932 3.903 4.308.634-3.127 3.034z" fill="#111"/></svg>